<?xml version="1.0" encoding="iso-8859-1"?>
<!-- Generator: Adobe Illustrator 16.0.0, SVG Export Plug-In . SVG Version: 6.00 Build 0)  -->
<!DOCTYPE svg PUBLIC "-//W3C//DTD SVG 1.1//EN" "http://www.w3.org/Graphics/SVG/1.1/DTD/svg11.dtd">
<svg version="1.1" id="Capa_1" xmlns="http://www.w3.org/2000/svg" xmlns:xlink="http://www.w3.org/1999/xlink" x="0px" y="0px"
	 width="550.801px" height="550.801px" viewBox="0 0 550.801 550.801" style="enable-background:new 0 0 550.801 550.801;"
	 xml:space="preserve">
<g>
	<path d="M275.4,382.801c61.2,0,118.7-12.201,167.1-34.301c2.4-15.301,3.699-31.199,3.699-47.1C446.199,180.2,374.6,76.8,275.5,39.5
		c-99.2,37.3-170.8,140.7-170.8,261.9c0,15.9,1.2,31.799,3.7,47.1C156.7,370,214.2,382.801,275.4,382.801z M222.2,232.9
		c15.3-6.7,33.7-11,53.2-11c19.5,0,37.299,4.3,53.2,11c0.6,4.9,1.201,9.8,1.201,14.7c0,38.599-22.602,71-54.501,83.201
		c-31.2-11.602-54.5-44.701-54.5-83.201C220.9,242.7,221.5,237.8,222.2,232.9z M550.801,377.301c0,74.1-123.602,134-275.401,134
		c-151.8,0-275.4-60-275.4-134c0-36.102,30-69.201,78.3-93.602c-1.2,11.602-1.8,23.301-1.8,35.5c0,19.602,1.2,38.602,4.3,57.5
		c56.9,26.301,123,41.602,194.6,41.602S413.1,403,470,376.699c3.1-18.398,4.301-37.898,4.301-57.5c0-12.199-0.602-23.898-1.801-35.5
		C520.801,308.1,550.801,340.6,550.801,377.301z M78.3,283.699L78.3,283.699L78.3,283.699L78.3,283.699z"/>
</g>
<g>
</g>
<g>
</g>
<g>
</g>
<g>
</g>
<g>
</g>
<g>
</g>
<g>
</g>
<g>
</g>
<g>
</g>
<g>
</g>
<g>
</g>
<g>
</g>
<g>
</g>
<g>
</g>
<g>
</g>
</svg>
