<?xml version="1.0" encoding="iso-8859-1"?>
<!-- Generator: Adobe Illustrator 17.1.0, SVG Export Plug-In . SVG Version: 6.00 Build 0)  -->
<!DOCTYPE svg PUBLIC "-//W3C//DTD SVG 1.1//EN" "http://www.w3.org/Graphics/SVG/1.1/DTD/svg11.dtd">
<svg version="1.1" id="Capa_1" xmlns="http://www.w3.org/2000/svg" xmlns:xlink="http://www.w3.org/1999/xlink" x="0px" y="0px"
	 viewBox="0 0 512 512" style="enable-background:new 0 0 512 512;" xml:space="preserve">
<g>
	<path d="M256,200c-30.878,0-56,25.122-56,56s25.122,56,56,56s56-25.122,56-56S286.878,200,256,200z M256,296
		c-22.056,0-40-17.944-40-40s17.944-40,40-40s40,17.944,40,40S278.056,296,256,296z"/>
	<path d="M272,248c-4.418,0-8,3.582-8,8c0,4.411-3.589,8-8,8s-8-3.589-8-8s3.589-8,8-8c4.418,0,8-3.582,8-8s-3.582-8-8-8
		c-13.234,0-24,10.766-24,24s10.766,24,24,24s24-10.766,24-24C280,251.582,276.418,248,272,248z"/>
	<path d="M398.999,232H384v-7.992C384,210.77,373.23,200,359.992,200H344v-40h16c2.122,0,4.157-0.843,5.657-2.343
		c1.5-1.5,2.343-3.535,2.343-5.657l-0.001-31.981c0-0.007,0.001-0.013,0.001-0.019c0-4.418-3.582-8-8-8h-0.001
		c-4.632,0-8.547-3.321-9.31-7.896c-3.694-22.151-15.177-42.429-32.334-57.098c-9.043-7.732-19.395-13.633-30.464-17.531
		C286.598,13.007,272.794,0,256,0c-16.794,0-30.598,13.007-31.891,29.474c-11.069,3.898-21.421,9.8-30.464,17.532
		c-17.157,14.669-28.641,34.947-32.334,57.098c-0.763,4.575-4.678,7.896-9.31,7.896c-4.418,0-8,3.582-8,8v32c0,4.418,3.582,8,8,8h16
		v40h-15.992C138.77,200,128,210.77,128,224.008V232h-14.999c-4.963,0-9.001,4.038-9.001,9.001v29.998
		c0,4.963,4.038,9.001,9.001,9.001H128v7.992C128,301.23,138.77,312,152.008,312H168v144h-19.995
		c-6.62,0-12.005,5.385-12.005,12.005V504c0,4.418,3.582,8,8,8h224c4.418,0,8-3.582,8-8v-35.995c0-6.62-5.385-12.005-12.005-12.005
		H344V312h15.992C373.23,312,384,301.23,384,287.992V280h14.999c4.963,0,9.001-4.038,9.001-9.001v-29.998
		C408,236.038,403.962,232,398.999,232z M216.206,112c0.979-19.141,5.462-36.804,12.876-50.395
		c5.41-9.918,12.033-16.76,18.918-19.806V112H216.206z M264,41.799c6.885,3.046,13.508,9.888,18.918,19.806
		c7.413,13.591,11.897,31.254,12.876,50.395H264V41.799z M256,16c6.354,0,11.839,3.733,14.42,9.112
		c-4.255-0.647-8.564-1.01-12.905-1.079C257.012,24.012,256.507,24,256,24s-1.012,0.012-1.515,0.034
		c-4.341,0.069-8.65,0.432-12.904,1.079C244.161,19.733,249.646,16,256,16z M177.092,106.736
		c3.076-18.447,12.647-35.34,26.95-47.569c4.124-3.526,8.583-6.583,13.279-9.177c-9.685,15.703-16.002,37.413-17.135,62.01h-24.561
		C176.287,110.332,176.786,108.572,177.092,106.736z M160,128h144c4.418,0,8-3.582,8-8c0-27.877-6.598-52.624-17.32-70.009
		c4.696,2.593,9.154,5.65,13.278,9.176c14.303,12.229,23.874,29.122,26.949,47.568c0.306,1.837,0.805,3.597,1.467,5.265H336
		c-4.418,0-8,3.582-8,8s3.582,8,8,8h16v16H160V128z M120,264v-16h8v16H120z M152.008,296c-4.416,0-8.008-3.592-8.008-8.008V272v-32
		v-15.992c0-4.416,3.592-8.008,8.008-8.008H168v80H152.008z M360,496H152v-24h208V496z M184,456v-80h104c4.418,0,8-3.582,8-8
		s-3.582-8-8-8H184V160h144v200h-8c-4.418,0-8,3.582-8,8s3.582,8,8,8h8v80H184z M368,287.992c0,4.416-3.592,8.008-8.008,8.008H344
		v-80h15.992c4.416,0,8.008,3.592,8.008,8.008V240v32V287.992z M392,264h-8v-16h8V264z"/>
	<path d="M256,392c-4.418,0-8,3.582-8,8v32c0,4.418,3.582,8,8,8s8-3.582,8-8v-32C264,395.582,260.418,392,256,392z"/>
	<path d="M216,392c-4.418,0-8,3.582-8,8v32c0,4.418,3.582,8,8,8s8-3.582,8-8v-32C224,395.582,220.418,392,216,392z"/>
	<path d="M296,392c-4.418,0-8,3.582-8,8v32c0,4.418,3.582,8,8,8s8-3.582,8-8v-32C304,395.582,300.418,392,296,392z"/>
</g>
<g>
</g>
<g>
</g>
<g>
</g>
<g>
</g>
<g>
</g>
<g>
</g>
<g>
</g>
<g>
</g>
<g>
</g>
<g>
</g>
<g>
</g>
<g>
</g>
<g>
</g>
<g>
</g>
<g>
</g>
</svg>
