<?xml version="1.0" encoding="iso-8859-1"?>
<!-- Generator: Adobe Illustrator 16.0.0, SVG Export Plug-In . SVG Version: 6.00 Build 0)  -->
<!DOCTYPE svg PUBLIC "-//W3C//DTD SVG 1.1//EN" "http://www.w3.org/Graphics/SVG/1.1/DTD/svg11.dtd">
<svg version="1.1" id="Capa_1" xmlns="http://www.w3.org/2000/svg" xmlns:xlink="http://www.w3.org/1999/xlink" x="0px" y="0px"
	 width="621.765px" height="621.766px" viewBox="0 0 621.765 621.766" style="enable-background:new 0 0 621.765 621.766;"
	 xml:space="preserve">
<g>
	<g>
		<defs>
			<rect id="SVGID_1_" x="84.457" width="452.853" height="621.766"/>
		</defs>
		<clipPath id="SVGID_2_">
			<use xlink:href="#SVGID_1_"  style="overflow:visible;"/>
		</clipPath>
		<path style="clip-path:url(#SVGID_2_);fill:#27241F;" d="M521.058,0.683l-140.11,36.701c-16.08,4.205-35.972,5.58-35.972,5.58
			h-34.089c-8.182,0-8.153-7.163-8.153-7.163h-0.171c-2.569-16.279-18.934-28.775-38.758-28.775h-17.284
			c-18.512,0-34.084,10.884-38.171,25.57h-0.085c0,0-0.009,0.175-0.042,0.351c-0.133,0.531-0.204,1.104-0.327,1.659
			c-0.768,3-3.205,8.367-10.894,8.367H112.34c-15.35,0-27.884,12.401-27.884,27.875v25.485c0,15.459,12.534,27.874,27.884,27.874
			h90.042c2.02,0.109,4.84,0.796,4.84,4.399c0,0-0.132,5.409-4.115,7.115c-0.128,0.048-0.147,0.138-0.261,0.204
			c-49.358,20.503-84.116,69.107-84.116,125.941V580.96c0,22.583,12.283,40.806,27.884,40.806h217.078
			c15.492,0,27.874-18.223,27.874-40.806V261.866c0-55.445-32.937-103.215-80.479-124.448c-0.085-0.038-0.113-0.095-0.199-0.133
			c-7.679-3.712-7.793-7.021-7.793-7.021v-1.892c0,0-0.152-4.167,5.3-4.167h37.947c0,0,15.341,0.915,32.748,8.699l135.313,60.603
			c0,0,22.906,10.794,22.906-8.751V11.297C537.309-3.171,522.955,0.199,521.058,0.683L521.058,0.683z"/>
	</g>
</g>
<g>
</g>
<g>
</g>
<g>
</g>
<g>
</g>
<g>
</g>
<g>
</g>
<g>
</g>
<g>
</g>
<g>
</g>
<g>
</g>
<g>
</g>
<g>
</g>
<g>
</g>
<g>
</g>
<g>
</g>
</svg>
