<?xml version="1.0" encoding="iso-8859-1"?>
<!-- Generator: Adobe Illustrator 16.0.0, SVG Export Plug-In . SVG Version: 6.00 Build 0)  -->
<!DOCTYPE svg PUBLIC "-//W3C//DTD SVG 1.1//EN" "http://www.w3.org/Graphics/SVG/1.1/DTD/svg11.dtd">
<svg version="1.1" id="Capa_1" xmlns="http://www.w3.org/2000/svg" xmlns:xlink="http://www.w3.org/1999/xlink" x="0px" y="0px"
	 width="989px" height="989px" viewBox="0 0 989 989" style="enable-background:new 0 0 989 989;" xml:space="preserve">
<g>
	<path d="M845.34,275.3c-17.399-4.8-37.1-7.2-58.2-7.2c-24.6,0-51.1,3.4-77.1,10.3c-20,5.3-40.1,12.7-59.2,22.3
		c-72.1,36-155.7,38.5-155.7,38.5s-83.8-2.5-155.899-38.5c-19.101-9.5-39.1-16.9-59.1-22.2c-26-7-52.8-10.4-77.6-10.4
		c-21.1,0-40.9,2.5-58.4,7.3c-9.2,2.5-15.5,11.3-14.8,20.8c2.6,32.7,8.7,111.3,112.7,189.8V376.6c0,0,23,8.1,40,19.7v75.5
		c0,117.5,95.4,213.2,212.9,213.2h0.1c117.5,0,213-95.7,213-213.2v-76.2c17-11.2,38-19,38-19V486c105-78.5,110.9-157,113.6-189.9
		C860.441,286.6,854.541,277.8,845.34,275.3z"/>
	<path d="M543.241,0h-96.3c-11,0-19.801,9-19.801,20v19.1c-84,21.2-147,97.4-147,188.3v8.3c24,6,48.2,14.6,70.3,25.6
		c62.6,31.3,136.5,35.5,144.699,35.8c8.301-0.4,82-4.6,144.601-35.8c22.2-11.1,46.399-19.7,70.399-25.7v-8.3
		c0-90.9-63-167.1-147-188.3V20C563.041,9,554.241,0,543.241,0z M494.541,209.8c-26.2,0-47.5-21.3-47.5-47.5
		c0-6.5,1.3-12.3,3.7-18.3c7.2-17,24.1-29.2,43.8-29.2s36.7,12.2,43.8,29.2c2.4,6,3.7,11.8,3.7,18.3
		C542.041,188.6,520.741,209.8,494.541,209.8z"/>
	<path d="M551.041,725h-112c-145.8,0-264,118.2-264,264l0,0h640l0,0C815.041,843.2,696.84,725,551.041,725z"/>
</g>
<g>
</g>
<g>
</g>
<g>
</g>
<g>
</g>
<g>
</g>
<g>
</g>
<g>
</g>
<g>
</g>
<g>
</g>
<g>
</g>
<g>
</g>
<g>
</g>
<g>
</g>
<g>
</g>
<g>
</g>
</svg>
