<?xml version="1.0" encoding="iso-8859-1"?>
<!-- Generator: Adobe Illustrator 17.1.0, SVG Export Plug-In . SVG Version: 6.00 Build 0)  -->
<!DOCTYPE svg PUBLIC "-//W3C//DTD SVG 1.1//EN" "http://www.w3.org/Graphics/SVG/1.1/DTD/svg11.dtd">
<svg version="1.1" id="Capa_1" xmlns="http://www.w3.org/2000/svg" xmlns:xlink="http://www.w3.org/1999/xlink" x="0px" y="0px"
	 viewBox="0 0 296.116 296.116" style="enable-background:new 0 0 296.116 296.116;" xml:space="preserve">
<path d="M296,50.148c-21.556,3.223-52.511,1.035-75.707-11.165l4.355-7.659c2.751-4.838,1.06-10.99-3.778-13.741
	c-4.843-2.753-10.991-1.058-13.741,3.778l-3.907,6.872l-17.435-9.981c-3.779-2.163-8.639-0.842-10.801,2.936l-19.949,34.846
	c-2.162,3.777-0.842,8.64,2.937,10.801l17.576,10.063l-27.491,48.346l-27.491-48.347l17.574-10.061
	c3.779-2.161,5.102-7.023,2.939-10.801l-19.948-34.846c-2.163-3.777-7.024-5.099-10.801-2.936l-17.435,9.981l-3.907-6.872
	c-2.75-4.838-8.902-6.531-13.741-3.778c-4.838,2.751-6.529,8.903-3.778,13.741l4.354,7.659
	c-23.199,12.2-54.156,14.388-75.709,11.165c0,0-2.523,21.882,16.019,54.279c18.549,32.395,38.695,41.295,38.695,41.295
	c8.259-20.523,25.065-45.917,47.806-59.592l33.832,59.497L68.706,264.793c-2.751,4.838-1.06,10.99,3.778,13.741
	c1.573,0.895,3.283,1.319,4.972,1.319c3.506,0,6.913-1.833,8.77-5.098l61.833-108.741l61.834,108.741
	c1.856,3.266,5.264,5.098,8.769,5.098c1.688,0,3.398-0.425,4.972-1.319c4.838-2.751,6.529-8.903,3.778-13.741l-67.761-119.165
	l33.831-59.494c22.742,13.674,39.546,39.067,47.806,59.589c0,0,20.147-8.9,38.693-41.295C298.527,72.03,296,50.148,296,50.148z"/>
<g>
</g>
<g>
</g>
<g>
</g>
<g>
</g>
<g>
</g>
<g>
</g>
<g>
</g>
<g>
</g>
<g>
</g>
<g>
</g>
<g>
</g>
<g>
</g>
<g>
</g>
<g>
</g>
<g>
</g>
</svg>
